<svg width="24" height="24" viewBox="0 0 24 24" fill="none" xmlns="http://www.w3.org/2000/svg">
    <g id="sun-rise">
        <g id="Ellipse 1">
            <mask id="path-1-inside-1" fill="white">
                <path
                    d="M17 12C17 10.6739 16.4732 9.40215 15.5355 8.46447C14.5979 7.52678 13.3261 7 12 7C10.6739 7 9.40215 7.52678 8.46447 8.46447C7.52678 9.40215 7 10.6739 7 12L12 12H17Z" />
            </mask>
            <path
                d="M17 12C17 10.6739 16.4732 9.40215 15.5355 8.46447C14.5979 7.52678 13.3261 7 12 7C10.6739 7 9.40215 7.52678 8.46447 8.46447C7.52678 9.40215 7 10.6739 7 12L12 12H17Z"
                stroke="white" stroke-width="2" mask="url(#path-1-inside-1)" />
        </g>
        <line id="Line 1" x1="12" y1="2" x2="12" y2="6" stroke="white" />
        <line id="Line 2" x1="15.6464" y1="7.47487" x2="18.4749" y2="4.64645" stroke="white" />
        <line id="Line 6" x1="5.35355" y1="4.64645" x2="8.18198" y2="7.47487" stroke="white" />
        <line id="Line 3" x1="18" y1="11.5" x2="22" y2="11.5" stroke="white" />
        <line id="Line 5" x1="2" y1="11.5" x2="6" y2="11.5" stroke="white" />
        <line id="Line 7" x1="2" y1="13.5" x2="13" y2="13.5" stroke="white" />
        <line id="Line 8" x1="15" y1="13.5" x2="20" y2="13.5" stroke="white" />
        <line id="Line 9" x1="1" y1="15.5" x2="9" y2="15.5" stroke="white" />
        <line id="Line 10" x1="10" y1="15.5" x2="15" y2="15.5" stroke="white" />
        <line id="Line 11" x1="17" y1="15.5" x2="24" y2="15.5" stroke="white" />
        <line id="Line 12" y1="17.5" x2="12" y2="17.5" stroke="white" />
        <line id="Line 13" x1="14" y1="17.5" x2="23" y2="17.5" stroke="white" />
        <line id="Line 14" x1="15" y1="19.5" x2="23" y2="19.5" stroke="white" />
        <line id="Line 16" x1="8" y1="19.5" x2="13" y2="19.5" stroke="white" />
        <line id="Line 15" x1="1" y1="19.5" x2="7" y2="19.5" stroke="white" />
    </g>
</svg>