<svg width="70" height="70" viewBox="0 0 70 70" fill="none" xmlns="http://www.w3.org/2000/svg">
    <g id="thermometer">
        <g id="bottom">
            <mask id="mask0" mask-type="alpha" maskUnits="userSpaceOnUse" x="22" y="46" width="26" height="21">
                <g id="path 1 inside 1">
                    <path id="Vector"
                        d="M45.9261 46.9559C47.1935 48.9217 47.907 51.193 47.9915 53.5304C48.076 55.8678 47.5283 58.1847 46.4062 60.2368C45.2841 62.289 43.6291 64.0004 41.6157 65.1907C39.6023 66.381 37.3051 67.006 34.9662 67C32.6273 66.9939 30.3333 66.3569 28.3262 65.1562C26.319 63.9554 24.6729 62.2354 23.5615 60.1774C22.4501 58.1195 21.9145 55.7997 22.0111 53.4628C22.1077 51.1259 22.8331 48.8583 24.1106 46.8992L35 54L45.9261 46.9559Z"
                        fill="white" />
                </g>
            </mask>
            <g mask="url(#mask0)">
                <path id="Vector_2"
                    d="M45.9261 46.9559C47.1935 48.9217 47.907 51.193 47.9915 53.5304C48.076 55.8678 47.5283 58.1847 46.4062 60.2368C45.2841 62.289 43.6291 64.0004 41.6157 65.1907C39.6023 66.381 37.3051 67.006 34.9662 67C32.6273 66.9939 30.3333 66.3569 28.3262 65.1562C26.319 63.9554 24.6729 62.2354 23.5615 60.1774C22.4501 58.1195 21.9145 55.7997 22.0111 53.4628C22.1077 51.1259 22.8331 48.8583 24.1106 46.8992L35 54L45.9261 46.9559Z"
                    stroke="white" stroke-width="2" />
            </g>
        </g>
        <path id="capsule" d="M24.5 48.5V10.5C29.8123 0.277292 41.8707 3.06878 45.5 10.5V48.5" stroke="white" />
        <g id="reading">
            <path id="8" d="M39 12H45" stroke="white" />
            <path id="7" d="M39 16H45" stroke="white" />
            <path id="6" d="M39 20H45" stroke="white" />
            <path id="5" d="M39 24H45" stroke="white" />
            <path id="4" d="M39 28H45" stroke="white" />
            <path id="3" d="M39 32H45" stroke="white" />
            <path id="2" d="M39 36H45" stroke="white" />
            <path id="1" d="M39 40H45" stroke="white" />
        </g>
        <path id="mercury circle"
            d="M35 59C37.7614 59 40 56.7614 40 54C40 51.2386 37.7614 49 35 49C32.2386 49 30 51.2386 30 54C30 56.7614 32.2386 59 35 59Z"
            fill="white" />
        <g id="mercury">
            <path d="M35 50V32Z" fill="white" />
            <path d="M35 50V32" stroke="white" />
        </g>
    </g>
</svg>