<svg width="75" height="75" viewBox="0 0 75 75" fill="none" xmlns="http://www.w3.org/2000/svg">
    <g clip-path="url(#clip0)">
        <path
            d="M49.6672 25.6256C52.9491 28.9075 54.7929 33.3587 54.7929 38C54.7929 42.6413 52.9491 47.0925 49.6672 50.3744C46.3853 53.6563 41.9342 55.5 37.2929 55.5C32.6516 55.5 28.2004 53.6563 24.9185 50.3744L37.2929 38L49.6672 25.6256Z"
            fill="#808080" />
        <path
            d="M24.9185 50.3744C21.6366 47.0925 19.7929 42.6413 19.7929 38C19.7929 33.3587 21.6366 28.9075 24.9185 25.6256C28.2004 22.3437 32.6516 20.5 37.2929 20.5C41.9342 20.5 46.3854 22.3437 49.6673 25.6256L37.2929 38L24.9185 50.3744Z"
            fill="white" />
        <line x1="23.681" y1="24.0346" x2="13.0744" y2="13.428" stroke="white" stroke-width="1.5" />
        <line x1="37.6789" y1="17.2157" x2="37.6789" y2="2.21573" stroke="white" stroke-width="1.5" />
        <line x1="39.0931" y1="72.3701" x2="39.0931" y2="57.3701" stroke="#808080" stroke-width="1.5" />
        <line x1="1.23044" y1="38.6642" x2="16.2304" y2="38.6642" stroke="white" stroke-width="1.5" />
        <line x1="57.0919" y1="37.9571" x2="72.0919" y2="37.9571" stroke="#808080" stroke-width="1.5" />
        <line x1="51.1698" y1="22.8856" x2="61.7764" y2="12.279" stroke="white" stroke-width="0.75" />
        <line x1="51.7002" y1="23.4159" x2="62.3068" y2="12.8093" stroke="#808080" stroke-width="0.75" />
        <line x1="12.279" y1="61.7765" x2="22.8856" y2="51.1699" stroke="white" stroke-width="0.75" />
        <line x1="12.8093" y1="62.3068" x2="23.4159" y2="51.7002" stroke="#808080" stroke-width="0.75" />
        <line x1="62.572" y1="62.9255" x2="51.9654" y2="52.3189" stroke="#808080" stroke-width="1.5" />
    </g>
    <defs>
        <clipPath id="clip0">
            <rect width="75" height="75" fill="white" />
        </clipPath>
    </defs>
</svg>